# xmcd CD database file
#
# Track frame offsets:
#	150
#	28632
#	51620
#	84572
#	108575
#	145200
#	173817
#	206707
#	248340
#	263790
#
# Disc length: 4147 seconds
#
# Revision: 13
# Processed by: cddbd v1.5.2PL0 Copyright (c) Steve Scherf et al.
# Submitted via: CDex 1.91
#
DISCID=8b10310a
DTITLE=Dario G - Sunmachine
DYEAR=1998
DGENRE=Pop
TTITLE0=Sunchyme
TTITLE1=Carnaval De Paris
TTITLE2=Sunmachine
TTITLE3=Voices
TTITLE4=Be My Friend
TTITLE5=Peaches
TTITLE6=Malaway
TTITLE7=Revolution
TTITLE8=Voices [Acoustic Version]
TTITLE9=End Of The Beginning
EXTD=YEAR: 1998
EXTT0=
EXTT1=
EXTT2=
EXTT3=
EXTT4=
EXTT5=
EXTT6=
EXTT7=
EXTT8=
EXTT9=
PLAYORDER=
